<svg width="126.93" height="180.96" x="32.05" y="-95.69" overflow="hidden"><path fill="#dc0000" d="M41.995840349534475 126.42676680699071c-23.19596 0-42-18.80404-42-42 0-7.89134 2.17635-15.27437 5.96157-21.58161-3.51957-6.14326-5.53157-13.26086-5.53157-20.84839 0-23.19596 18.80404-42 42-42 7.69445 0 14.90563 2.0691 21.1075 5.68125 6.20187-3.61215 13.41305-5.68125 21.1075-5.68125 23.19596 0 42 18.80404 42 42 0 7.89134-2.17635 15.27437-5.96157 21.58161 3.51957 6.14326 5.53157 13.26086 5.53157 20.84839 0 23.19596-18.80404 42-42 42-7.69445 0-14.90563-2.0691-21.1075-5.68125-6.20187 3.61215-13.41305 5.68125-21.1075 5.68125z"></path><path d="M55.55514813326447 86.22736985313952c-8.445290004498073 0-15.291549915973256-6.846259911475187-15.291549915973256-15.291549915973256 0-2.873114750331343 0.7923753490387715-5.561161697382012 2.170515362680207-7.857530156715897-1.2814209604229048-2.236665879447664-2.0139590183023857-4.828073871874598-2.0139590183023857-7.590576103635184 0-8.445290004498073 6.846259911475187-15.291549915973256 15.291549915973256-15.291549915973256 2.801430148832391 0 5.426909170810203 0.7533272840747685 7.684914044081086 2.0684551895267402 2.258004873270883-1.315127905451972 4.883483895248693-2.0684551895267402 7.684914044081086-2.0684551895267402 8.445290004498073 0 15.291549915973256 6.846259911475187 15.291549915973256 15.291549915973256 0 2.873114750331343-0.7923753490387715 5.561161697382012-2.170515362680207 7.857530156715897 1.2814209604229048 2.236665879447664 2.0139590183023857 4.828073871874598 2.0139590183023857 7.590576103635184 0 8.445290004498073-6.846259911475187 15.291549915973256-15.291549915973256 15.291549915973256-2.801430148832391 0-5.426909170810203-0.7533272840747685-7.684914044081086-2.0684551895267402-2.258004873270883 1.315127905451972-4.883483895248693 2.0684551895267402-7.684914044081086 2.0684551895267402z" fill="#161616ff"></path><path d="M48.543809122658736 107.01394720361154c-16.07266668342642 0-29.102136781746022-13.029470098319612-29.102136781746022-29.102136781746022 0-5.467972763601516 1.5080103663084041-10.583733452261862 4.130819656522706-14.954070623578524-2.438738275069759-4.256714114424502-3.832869208519116-9.188556227704396-3.832869208519116-14.446016606171098 0-16.07266668342642 13.029470098319612-29.102136781746022 29.102136781746022-29.102136781746022 5.331546103816803 0 10.328230549478503 1.43369598131216 14.625556002873916 3.9365836807451107 4.297325453395411-2.502887699432951 9.294009899057107-3.9365836807451107 14.625556002873916-3.9365836807451107 16.07266668342642 0 29.102136781746022 13.029470098319612 29.102136781746022 29.102136781746022 0 5.467972763601516-1.5080103663084041 10.583733452261862-4.130819656522706 14.954070623578524 2.438738275069759 4.256714114424502 3.832869208519116 9.188556227704396 3.832869208519116 14.446016606171098 0 16.07266668342642-13.029470098319612 29.102136781746022-29.102136781746022 29.102136781746022-5.331546103816803 0-10.328230549478503-1.43369598131216-14.625556002873916-3.9365836807451107-4.297325453395411 2.502887699432951-9.294009899057107 3.9365836807451107-14.625556002873916 3.9365836807451107z" fill="#00000040"></path><circle cx="63.32" cy="63.21" r="11.07" fill="#ffd8a5ff"></circle><path fill="#51b13eff" d="M78.7960078641739 152.09525780082294c0 10.968861801503417-6.225270316323725 20.54570840663132-15.477667514639421 25.668490993832208-9.252445021736374-5.122828374162154-15.477667514639421-14.699629192328793-15.477667514639421-25.668490993832208 0-10.968861801503417 6.225270316323725-20.54570840663132 15.477667514639421-25.668490993832208 9.252445021736374 5.122828374162154 15.477667514639421 14.699629192328793 15.477667514639421 25.668490993832208z"></path></svg>
